<?xml version="1.0" encoding="UTF-8" standalone="no"?>
<!DOCTYPE svg PUBLIC "-//W3C//DTD SVG 1.1//EN"
 "http://www.w3.org/Graphics/SVG/1.1/DTD/svg11.dtd">
<!-- Generated by graphviz version 2.40.1 (20161225.0304)
 -->
<!-- Title: G Pages: 1 -->
<svg width="7791pt" height="285pt"
 viewBox="0.00 0.00 7791.00 285.00" xmlns="http://www.w3.org/2000/svg" xmlns:xlink="http://www.w3.org/1999/xlink">
<g id="graph0" class="graph" transform="scale(1 1) rotate(0) translate(4 281)">
<title>G</title>
<polygon fill="#23272a" stroke="transparent" points="-4,4 -4,-281 7787,-281 7787,4 -4,4"/>
<g id="clust1" class="cluster">
<title>cluster_family_0</title>
</g>
<g id="clust4" class="cluster">
<title>cluster_family_1</title>
</g>
<g id="clust7" class="cluster">
<title>cluster_family_2</title>
</g>
<g id="clust10" class="cluster">
<title>cluster_family_3</title>
</g>
<g id="clust13" class="cluster">
<title>cluster_family_4</title>
</g>
<g id="clust16" class="cluster">
<title>cluster_family_5</title>
</g>
<g id="clust19" class="cluster">
<title>cluster_family_6</title>
</g>
<g id="clust22" class="cluster">
<title>cluster_family_7</title>
</g>
<g id="clust25" class="cluster">
<title>cluster_family_8</title>
</g>
<g id="clust28" class="cluster">
<title>cluster_family_9</title>
</g>
<g id="clust31" class="cluster">
<title>cluster_family_10</title>
</g>
<g id="clust34" class="cluster">
<title>cluster_family_11</title>
</g>
<g id="clust37" class="cluster">
<title>cluster_family_12</title>
</g>
<g id="clust40" class="cluster">
<title>cluster_family_13</title>
</g>
<g id="clust43" class="cluster">
<title>cluster_family_14</title>
</g>
<g id="clust46" class="cluster">
<title>cluster_family_15</title>
</g>
<g id="clust49" class="cluster">
<title>cluster_family_16</title>
</g>
<g id="clust52" class="cluster">
<title>cluster_family_17</title>
</g>
<g id="clust55" class="cluster">
<title>cluster_family_18</title>
</g>
<g id="clust58" class="cluster">
<title>cluster_family_19</title>
</g>
<g id="clust61" class="cluster">
<title>cluster_family_20</title>
</g>
<g id="clust64" class="cluster">
<title>cluster_family_21</title>
</g>
<g id="clust67" class="cluster">
<title>cluster_family_22</title>
</g>
<g id="clust70" class="cluster">
<title>cluster_family_23</title>
</g>
<g id="clust73" class="cluster">
<title>cluster_family_24</title>
</g>
<g id="clust76" class="cluster">
<title>cluster_family_25</title>
</g>
<g id="clust79" class="cluster">
<title>cluster_family_26</title>
</g>
<g id="clust82" class="cluster">
<title>cluster_family_27</title>
</g>
<!-- union_0 -->
<g id="node1" class="node">
<title>union_0</title>
<ellipse fill="#d25252" stroke="#ffffff" cx="220.5" cy="-80" rx="3.5" ry="3.5"/>
</g>
<!-- siblings_0 -->
<g id="node4" class="node">
<title>siblings_0</title>
<polygon fill="#d25252" stroke="#cccccc" stroke-width="0" points="260,-80.5 253,-80.5 253,-79.5 260,-79.5 260,-80.5"/>
</g>
<!-- union_0&#45;&gt;siblings_0 -->
<g id="edge3" class="edge">
<title>union_0&#45;&gt;siblings_0</title>
<path fill="none" stroke="#d25252" d="M224.0834,-80C230.9128,-80 245.7324,-80 252.7154,-80"/>
</g>
<!-- Gramps -->
<g id="node2" class="node">
<title>Gramps</title>
<polygon fill="#36393f" stroke="#cccccc" points="188,-98 8,-98 8,-62 188,-62 188,-98"/>
<text text-anchor="middle" x="98" y="-75.8" font-family="Helvetica, Arial, sans-serif" font-size="14.00" fill="#ffffff">Gramps</text>
</g>
<!-- Gramps&#45;&gt;union_0 -->
<g id="edge1" class="edge">
<title>Gramps&#45;&gt;union_0</title>
<path fill="none" stroke="#d25252" d="M188.3146,-80C200.9376,-80 211.4166,-80 216.7333,-80"/>
</g>
<!-- Nan -->
<g id="node3" class="node">
<title>Nan</title>
<polygon fill="#36393f" stroke="#cccccc" points="188,-44 8,-44 8,-8 188,-8 188,-44"/>
<text text-anchor="middle" x="98" y="-21.8" font-family="Helvetica, Arial, sans-serif" font-size="14.00" fill="#ffffff">Nan</text>
</g>
<!-- Nan&#45;&gt;union_0 -->
<g id="edge2" class="edge">
<title>Nan&#45;&gt;union_0</title>
<path fill="none" stroke="#d25252" d="M188.0383,-33C206.7943,-33 221,-33 221,-33 221,-33 221,-65.2322 221,-76.312"/>
</g>
<!-- Mother -->
<g id="node5" class="node">
<title>Mother</title>
<polygon fill="#36393f" stroke="#cccccc" points="469,-98 289,-98 289,-62 469,-62 469,-98"/>
<text text-anchor="middle" x="379" y="-75.8" font-family="Helvetica, Arial, sans-serif" font-size="14.00" fill="#ffffff">Mother</text>
</g>
<!-- siblings_0&#45;&gt;Mother -->
<g id="edge4" class="edge">
<title>siblings_0&#45;&gt;Mother</title>
<path fill="none" stroke="#d25252" d="M260.0341,-80C260.0341,-80 278.8106,-80 278.8106,-80"/>
<polygon fill="#d25252" stroke="#d25252" points="286.8105,-70 286.8107,-90 282.8107,-90.0001 282.8105,-70.0001 286.8105,-70"/>
<polyline fill="none" stroke="#d25252" points="288.8106,-80 278.8106,-80.0001 "/>
</g>
<!-- union_2 -->
<g id="node11" class="node">
<title>union_2</title>
<ellipse fill="#629755" stroke="#ffffff" cx="501.5" cy="-94" rx="3.5" ry="3.5"/>
</g>
<!-- Mother&#45;&gt;union_2 -->
<g id="edge9" class="edge">
<title>Mother&#45;&gt;union_2</title>
<path fill="none" stroke="#629755" d="M469.3146,-94C481.9376,-94 492.4166,-94 497.7333,-94"/>
</g>
<!-- union_1 -->
<g id="node6" class="node">
<title>union_1</title>
<ellipse fill="#ccdf32" stroke="#ffffff" cx="220.5" cy="-134" rx="3.5" ry="3.5"/>
</g>
<!-- siblings_1 -->
<g id="node9" class="node">
<title>siblings_1</title>
<polygon fill="#ccdf32" stroke="#cccccc" stroke-width="0" points="260,-134.5 253,-134.5 253,-133.5 260,-133.5 260,-134.5"/>
</g>
<!-- union_1&#45;&gt;siblings_1 -->
<g id="edge7" class="edge">
<title>union_1&#45;&gt;siblings_1</title>
<path fill="none" stroke="#ccdf32" d="M224.0834,-134C230.9128,-134 245.7324,-134 252.7154,-134"/>
</g>
<!-- Grandad -->
<g id="node7" class="node">
<title>Grandad</title>
<polygon fill="#36393f" stroke="#cccccc" points="188,-206 8,-206 8,-170 188,-170 188,-206"/>
<text text-anchor="middle" x="98" y="-183.8" font-family="Helvetica, Arial, sans-serif" font-size="14.00" fill="#ffffff">Grandad</text>
</g>
<!-- Grandad&#45;&gt;union_1 -->
<g id="edge5" class="edge">
<title>Grandad&#45;&gt;union_1</title>
<path fill="none" stroke="#ccdf32" d="M188.0383,-174.5C206.7943,-174.5 221,-174.5 221,-174.5 221,-174.5 221,-147.7637 221,-137.7375"/>
</g>
<!-- Grandmother -->
<g id="node8" class="node">
<title>Grandmother</title>
<polygon fill="#36393f" stroke="#cccccc" points="188,-152 8,-152 8,-116 188,-116 188,-152"/>
<text text-anchor="middle" x="98" y="-129.8" font-family="Helvetica, Arial, sans-serif" font-size="14.00" fill="#ffffff">Grandmother</text>
</g>
<!-- Grandmother&#45;&gt;union_1 -->
<g id="edge6" class="edge">
<title>Grandmother&#45;&gt;union_1</title>
<path fill="none" stroke="#ccdf32" d="M188.3146,-134C200.9376,-134 211.4166,-134 216.7333,-134"/>
</g>
<!-- Father -->
<g id="node10" class="node">
<title>Father</title>
<polygon fill="#36393f" stroke="#cccccc" points="469,-152 289,-152 289,-116 469,-116 469,-152"/>
<text text-anchor="middle" x="379" y="-129.8" font-family="Helvetica, Arial, sans-serif" font-size="14.00" fill="#ffffff">Father</text>
</g>
<!-- siblings_1&#45;&gt;Father -->
<g id="edge8" class="edge">
<title>siblings_1&#45;&gt;Father</title>
<path fill="none" stroke="#ccdf32" d="M260.0341,-134C260.0341,-134 278.8106,-134 278.8106,-134"/>
<polygon fill="#ccdf32" stroke="#ccdf32" points="286.8105,-124 286.8107,-144 282.8107,-144.0001 282.8105,-124.0001 286.8105,-124"/>
<polyline fill="none" stroke="#ccdf32" points="288.8106,-134 278.8106,-134.0001 "/>
</g>
<!-- Father&#45;&gt;union_2 -->
<g id="edge10" class="edge">
<title>Father&#45;&gt;union_2</title>
<path fill="none" stroke="#629755" d="M469.0383,-123C487.7943,-123 502,-123 502,-123 502,-123 502,-105.2998 502,-97.556"/>
</g>
<!-- siblings_2 -->
<g id="node12" class="node">
<title>siblings_2</title>
<polygon fill="#629755" stroke="#cccccc" stroke-width="0" points="541,-94.5 534,-94.5 534,-93.5 541,-93.5 541,-94.5"/>
</g>
<!-- union_2&#45;&gt;siblings_2 -->
<g id="edge11" class="edge">
<title>union_2&#45;&gt;siblings_2</title>
<path fill="none" stroke="#629755" d="M505.0834,-94C511.9128,-94 526.7324,-94 533.7154,-94"/>
</g>
<!-- Brother -->
<g id="node13" class="node">
<title>Brother</title>
<polygon fill="#36393f" stroke="#cccccc" points="750,-58 570,-58 570,-22 750,-22 750,-58"/>
<text text-anchor="middle" x="660" y="-35.8" font-family="Helvetica, Arial, sans-serif" font-size="14.00" fill="#ffffff">Brother</text>
</g>
<!-- siblings_2&#45;&gt;Brother -->
<g id="edge12" class="edge">
<title>siblings_2&#45;&gt;Brother</title>
<path fill="none" stroke="#629755" d="M538,-93.2537C538,-87.5437 538,-51 538,-51 538,-51 559.7356,-51 559.7356,-51"/>
<polygon fill="#629755" stroke="#629755" points="567.7355,-41 567.7357,-61 563.7357,-61.0001 563.7355,-41.0001 567.7355,-41"/>
<polyline fill="none" stroke="#629755" points="569.7356,-51 559.7356,-51.0001 "/>
</g>
<!-- Sister -->
<g id="node14" class="node">
<title>Sister</title>
<polygon fill="#36393f" stroke="#cccccc" points="750,-112 570,-112 570,-76 750,-76 750,-112"/>
<text text-anchor="middle" x="660" y="-89.8" font-family="Helvetica, Arial, sans-serif" font-size="14.00" fill="#ffffff">Sister</text>
</g>
<!-- siblings_2&#45;&gt;Sister -->
<g id="edge13" class="edge">
<title>siblings_2&#45;&gt;Sister</title>
<path fill="none" stroke="#629755" d="M541.0341,-94C541.0341,-94 559.8106,-94 559.8106,-94"/>
<polygon fill="#629755" stroke="#629755" points="567.8105,-84 567.8107,-104 563.8107,-104.0001 563.8105,-84.0001 567.8105,-84"/>
<polyline fill="none" stroke="#629755" points="569.8106,-94 559.8106,-94.0001 "/>
</g>
<!-- John Smith -->
<g id="node15" class="node">
<title>John Smith</title>
<polygon fill="#36393f" stroke="#cccccc" points="750,-166 570,-166 570,-130 750,-130 750,-166"/>
<text text-anchor="middle" x="660" y="-143.8" font-family="Helvetica, Arial, sans-serif" font-size="14.00" fill="#ffffff">John Smith</text>
</g>
<!-- siblings_2&#45;&gt;John Smith -->
<g id="edge14" class="edge">
<title>siblings_2&#45;&gt;John Smith</title>
<path fill="none" stroke="#629755" d="M538,-94.5278C538,-99.6914 538,-141 538,-141 538,-141 559.7356,-141 559.7356,-141"/>
<polygon fill="#629755" stroke="#629755" points="567.7355,-131 567.7357,-151 563.7357,-151.0001 563.7355,-131.0001 567.7355,-131"/>
<polyline fill="none" stroke="#629755" points="569.7356,-141 559.7356,-141.0001 "/>
</g>
<!-- union_3 -->
<g id="node16" class="node">
<title>union_3</title>
<ellipse fill="#cc7832" stroke="#ffffff" cx="782.5" cy="-199" rx="3.5" ry="3.5"/>
</g>
<!-- John Smith&#45;&gt;union_3 -->
<g id="edge15" class="edge">
<title>John Smith&#45;&gt;union_3</title>
<path fill="none" stroke="#cc7832" d="M750.0383,-148C768.7943,-148 783,-148 783,-148 783,-148 783,-183.6384 783,-195.3322"/>
</g>
<!-- siblings_3 -->
<g id="node18" class="node">
<title>siblings_3</title>
<polygon fill="#cc7832" stroke="#cccccc" stroke-width="0" points="822,-199.5 815,-199.5 815,-198.5 822,-198.5 822,-199.5"/>
</g>
<!-- union_3&#45;&gt;siblings_3 -->
<g id="edge17" class="edge">
<title>union_3&#45;&gt;siblings_3</title>
<path fill="none" stroke="#cc7832" d="M786.0834,-199C792.9128,-199 807.7324,-199 814.7154,-199"/>
</g>
<!-- Wife -->
<g id="node17" class="node">
<title>Wife</title>
<polygon fill="#36393f" stroke="#cccccc" points="750,-220 570,-220 570,-184 750,-184 750,-220"/>
<text text-anchor="middle" x="660" y="-197.8" font-family="Helvetica, Arial, sans-serif" font-size="14.00" fill="#ffffff">Wife</text>
</g>
<!-- Wife&#45;&gt;union_3 -->
<g id="edge16" class="edge">
<title>Wife&#45;&gt;union_3</title>
<path fill="none" stroke="#cc7832" d="M750.3146,-199C762.9376,-199 773.4166,-199 778.7333,-199"/>
</g>
<!-- Son -->
<g id="node19" class="node">
<title>Son</title>
<polygon fill="#36393f" stroke="#cccccc" points="1031,-215 851,-215 851,-179 1031,-179 1031,-215"/>
<text text-anchor="middle" x="941" y="-192.8" font-family="Helvetica, Arial, sans-serif" font-size="14.00" fill="#ffffff">Son</text>
</g>
<!-- siblings_3&#45;&gt;Son -->
<g id="edge18" class="edge">
<title>siblings_3&#45;&gt;Son</title>
<path fill="none" stroke="#cc7832" d="M822.0341,-199C822.0341,-199 840.8106,-199 840.8106,-199"/>
<polygon fill="#cc7832" stroke="#cc7832" points="848.8105,-189 848.8107,-209 844.8107,-209.0001 844.8105,-189.0001 848.8105,-189"/>
<polyline fill="none" stroke="#cc7832" points="850.8106,-199 840.8106,-199.0001 "/>
</g>
<!-- Daughter -->
<g id="node20" class="node">
<title>Daughter</title>
<polygon fill="#36393f" stroke="#cccccc" points="1031,-269 851,-269 851,-233 1031,-233 1031,-269"/>
<text text-anchor="middle" x="941" y="-246.8" font-family="Helvetica, Arial, sans-serif" font-size="14.00" fill="#ffffff">Daughter</text>
</g>
<!-- siblings_3&#45;&gt;Daughter -->
<g id="edge19" class="edge">
<title>siblings_3&#45;&gt;Daughter</title>
<path fill="none" stroke="#cc7832" d="M819,-199.584C819,-205.2969 819,-251 819,-251 819,-251 840.7356,-251 840.7356,-251"/>
<polygon fill="#cc7832" stroke="#cc7832" points="848.7355,-241 848.7357,-261 844.7357,-261.0001 844.7355,-241.0001 848.7355,-241"/>
<polyline fill="none" stroke="#cc7832" points="850.7356,-251 840.7356,-251.0001 "/>
</g>
<!-- union_4 -->
<g id="node21" class="node">
<title>union_4</title>
<ellipse fill="#6897bb" stroke="#ffffff" cx="1063.5" cy="-197" rx="3.5" ry="3.5"/>
</g>
<!-- Son&#45;&gt;union_4 -->
<g id="edge20" class="edge">
<title>Son&#45;&gt;union_4</title>
<path fill="none" stroke="#6897bb" d="M1031.3146,-197C1043.9376,-197 1054.4166,-197 1059.7333,-197"/>
</g>
<!-- siblings_4 -->
<g id="node22" class="node">
<title>siblings_4</title>
<polygon fill="#6897bb" stroke="#cccccc" stroke-width="0" points="1103,-197.5 1096,-197.5 1096,-196.5 1103,-196.5 1103,-197.5"/>
</g>
<!-- union_4&#45;&gt;siblings_4 -->
<g id="edge21" class="edge">
<title>union_4&#45;&gt;siblings_4</title>
<path fill="none" stroke="#6897bb" d="M1067.0834,-197C1073.9128,-197 1088.7324,-197 1095.7154,-197"/>
</g>
<!-- Son2 -->
<g id="node23" class="node">
<title>Son2</title>
<polygon fill="#36393f" stroke="#cccccc" points="1312,-215 1132,-215 1132,-179 1312,-179 1312,-215"/>
<text text-anchor="middle" x="1222" y="-192.8" font-family="Helvetica, Arial, sans-serif" font-size="14.00" fill="#ffffff">Son2</text>
</g>
<!-- siblings_4&#45;&gt;Son2 -->
<g id="edge22" class="edge">
<title>siblings_4&#45;&gt;Son2</title>
<path fill="none" stroke="#6897bb" d="M1103.0341,-197C1103.0341,-197 1121.8106,-197 1121.8106,-197"/>
<polygon fill="#6897bb" stroke="#6897bb" points="1129.8105,-187 1129.8107,-207 1125.8107,-207.0001 1125.8105,-187.0001 1129.8105,-187"/>
<polyline fill="none" stroke="#6897bb" points="1131.8106,-197 1121.8106,-197.0001 "/>
</g>
<!-- union_5 -->
<g id="node24" class="node">
<title>union_5</title>
<ellipse fill="#bbb529" stroke="#ffffff" cx="1344.5" cy="-197" rx="3.5" ry="3.5"/>
</g>
<!-- Son2&#45;&gt;union_5 -->
<g id="edge23" class="edge">
<title>Son2&#45;&gt;union_5</title>
<path fill="none" stroke="#bbb529" d="M1312.3146,-197C1324.9376,-197 1335.4166,-197 1340.7333,-197"/>
</g>
<!-- siblings_5 -->
<g id="node25" class="node">
<title>siblings_5</title>
<polygon fill="#bbb529" stroke="#cccccc" stroke-width="0" points="1384,-197.5 1377,-197.5 1377,-196.5 1384,-196.5 1384,-197.5"/>
</g>
<!-- union_5&#45;&gt;siblings_5 -->
<g id="edge24" class="edge">
<title>union_5&#45;&gt;siblings_5</title>
<path fill="none" stroke="#bbb529" d="M1348.0834,-197C1354.9128,-197 1369.7324,-197 1376.7154,-197"/>
</g>
<!-- Son3 -->
<g id="node26" class="node">
<title>Son3</title>
<polygon fill="#36393f" stroke="#cccccc" points="1593,-215 1413,-215 1413,-179 1593,-179 1593,-215"/>
<text text-anchor="middle" x="1503" y="-192.8" font-family="Helvetica, Arial, sans-serif" font-size="14.00" fill="#ffffff">Son3</text>
</g>
<!-- siblings_5&#45;&gt;Son3 -->
<g id="edge25" class="edge">
<title>siblings_5&#45;&gt;Son3</title>
<path fill="none" stroke="#bbb529" d="M1384.0341,-197C1384.0341,-197 1402.8106,-197 1402.8106,-197"/>
<polygon fill="#bbb529" stroke="#bbb529" points="1410.8105,-187 1410.8107,-207 1406.8107,-207.0001 1406.8105,-187.0001 1410.8105,-187"/>
<polyline fill="none" stroke="#bbb529" points="1412.8106,-197 1402.8106,-197.0001 "/>
</g>
<!-- union_6 -->
<g id="node27" class="node">
<title>union_6</title>
<ellipse fill="#9876aa" stroke="#ffffff" cx="1625.5" cy="-197" rx="3.5" ry="3.5"/>
</g>
<!-- Son3&#45;&gt;union_6 -->
<g id="edge26" class="edge">
<title>Son3&#45;&gt;union_6</title>
<path fill="none" stroke="#9876aa" d="M1593.3146,-197C1605.9376,-197 1616.4166,-197 1621.7333,-197"/>
</g>
<!-- siblings_6 -->
<g id="node28" class="node">
<title>siblings_6</title>
<polygon fill="#9876aa" stroke="#cccccc" stroke-width="0" points="1665,-197.5 1658,-197.5 1658,-196.5 1665,-196.5 1665,-197.5"/>
</g>
<!-- union_6&#45;&gt;siblings_6 -->
<g id="edge27" class="edge">
<title>union_6&#45;&gt;siblings_6</title>
<path fill="none" stroke="#9876aa" d="M1629.0834,-197C1635.9128,-197 1650.7324,-197 1657.7154,-197"/>
</g>
<!-- Son4 -->
<g id="node29" class="node">
<title>Son4</title>
<polygon fill="#36393f" stroke="#cccccc" points="1874,-215 1694,-215 1694,-179 1874,-179 1874,-215"/>
<text text-anchor="middle" x="1784" y="-192.8" font-family="Helvetica, Arial, sans-serif" font-size="14.00" fill="#ffffff">Son4</text>
</g>
<!-- siblings_6&#45;&gt;Son4 -->
<g id="edge28" class="edge">
<title>siblings_6&#45;&gt;Son4</title>
<path fill="none" stroke="#9876aa" d="M1665.0341,-197C1665.0341,-197 1683.8106,-197 1683.8106,-197"/>
<polygon fill="#9876aa" stroke="#9876aa" points="1691.8105,-187 1691.8107,-207 1687.8107,-207.0001 1687.8105,-187.0001 1691.8105,-187"/>
<polyline fill="none" stroke="#9876aa" points="1693.8106,-197 1683.8106,-197.0001 "/>
</g>
<!-- union_7 -->
<g id="node30" class="node">
<title>union_7</title>
<ellipse fill="#efc090" stroke="#ffffff" cx="1906.5" cy="-197" rx="3.5" ry="3.5"/>
</g>
<!-- Son4&#45;&gt;union_7 -->
<g id="edge29" class="edge">
<title>Son4&#45;&gt;union_7</title>
<path fill="none" stroke="#efc090" d="M1874.3146,-197C1886.9376,-197 1897.4166,-197 1902.7333,-197"/>
</g>
<!-- siblings_7 -->
<g id="node31" class="node">
<title>siblings_7</title>
<polygon fill="#efc090" stroke="#cccccc" stroke-width="0" points="1946,-197.5 1939,-197.5 1939,-196.5 1946,-196.5 1946,-197.5"/>
</g>
<!-- union_7&#45;&gt;siblings_7 -->
<g id="edge30" class="edge">
<title>union_7&#45;&gt;siblings_7</title>
<path fill="none" stroke="#efc090" d="M1910.0834,-197C1916.9128,-197 1931.7324,-197 1938.7154,-197"/>
</g>
<!-- Son5 -->
<g id="node32" class="node">
<title>Son5</title>
<polygon fill="#36393f" stroke="#cccccc" points="2155,-215 1975,-215 1975,-179 2155,-179 2155,-215"/>
<text text-anchor="middle" x="2065" y="-192.8" font-family="Helvetica, Arial, sans-serif" font-size="14.00" fill="#ffffff">Son5</text>
</g>
<!-- siblings_7&#45;&gt;Son5 -->
<g id="edge31" class="edge">
<title>siblings_7&#45;&gt;Son5</title>
<path fill="none" stroke="#efc090" d="M1946.0341,-197C1946.0341,-197 1964.8106,-197 1964.8106,-197"/>
<polygon fill="#efc090" stroke="#efc090" points="1972.8105,-187 1972.8107,-207 1968.8107,-207.0001 1968.8105,-187.0001 1972.8105,-187"/>
<polyline fill="none" stroke="#efc090" points="1974.8106,-197 1964.8106,-197.0001 "/>
</g>
<!-- union_8 -->
<g id="node33" class="node">
<title>union_8</title>
<ellipse fill="#d25252" stroke="#ffffff" cx="2187.5" cy="-197" rx="3.5" ry="3.5"/>
</g>
<!-- Son5&#45;&gt;union_8 -->
<g id="edge32" class="edge">
<title>Son5&#45;&gt;union_8</title>
<path fill="none" stroke="#d25252" d="M2155.3146,-197C2167.9376,-197 2178.4166,-197 2183.7333,-197"/>
</g>
<!-- siblings_8 -->
<g id="node34" class="node">
<title>siblings_8</title>
<polygon fill="#d25252" stroke="#cccccc" stroke-width="0" points="2227,-197.5 2220,-197.5 2220,-196.5 2227,-196.5 2227,-197.5"/>
</g>
<!-- union_8&#45;&gt;siblings_8 -->
<g id="edge33" class="edge">
<title>union_8&#45;&gt;siblings_8</title>
<path fill="none" stroke="#d25252" d="M2191.0834,-197C2197.9128,-197 2212.7324,-197 2219.7154,-197"/>
</g>
<!-- Son6 -->
<g id="node35" class="node">
<title>Son6</title>
<polygon fill="#36393f" stroke="#cccccc" points="2436,-215 2256,-215 2256,-179 2436,-179 2436,-215"/>
<text text-anchor="middle" x="2346" y="-192.8" font-family="Helvetica, Arial, sans-serif" font-size="14.00" fill="#ffffff">Son6</text>
</g>
<!-- siblings_8&#45;&gt;Son6 -->
<g id="edge34" class="edge">
<title>siblings_8&#45;&gt;Son6</title>
<path fill="none" stroke="#d25252" d="M2227.0341,-197C2227.0341,-197 2245.8106,-197 2245.8106,-197"/>
<polygon fill="#d25252" stroke="#d25252" points="2253.8105,-187 2253.8107,-207 2249.8107,-207.0001 2249.8105,-187.0001 2253.8105,-187"/>
<polyline fill="none" stroke="#d25252" points="2255.8106,-197 2245.8106,-197.0001 "/>
</g>
<!-- union_9 -->
<g id="node36" class="node">
<title>union_9</title>
<ellipse fill="#ccdf32" stroke="#ffffff" cx="2468.5" cy="-197" rx="3.5" ry="3.5"/>
</g>
<!-- Son6&#45;&gt;union_9 -->
<g id="edge35" class="edge">
<title>Son6&#45;&gt;union_9</title>
<path fill="none" stroke="#ccdf32" d="M2436.3146,-197C2448.9376,-197 2459.4166,-197 2464.7333,-197"/>
</g>
<!-- siblings_9 -->
<g id="node37" class="node">
<title>siblings_9</title>
<polygon fill="#ccdf32" stroke="#cccccc" stroke-width="0" points="2508,-197.5 2501,-197.5 2501,-196.5 2508,-196.5 2508,-197.5"/>
</g>
<!-- union_9&#45;&gt;siblings_9 -->
<g id="edge36" class="edge">
<title>union_9&#45;&gt;siblings_9</title>
<path fill="none" stroke="#ccdf32" d="M2472.0834,-197C2478.9128,-197 2493.7324,-197 2500.7154,-197"/>
</g>
<!-- Son7 -->
<g id="node38" class="node">
<title>Son7</title>
<polygon fill="#36393f" stroke="#cccccc" points="2717,-215 2537,-215 2537,-179 2717,-179 2717,-215"/>
<text text-anchor="middle" x="2627" y="-192.8" font-family="Helvetica, Arial, sans-serif" font-size="14.00" fill="#ffffff">Son7</text>
</g>
<!-- siblings_9&#45;&gt;Son7 -->
<g id="edge37" class="edge">
<title>siblings_9&#45;&gt;Son7</title>
<path fill="none" stroke="#ccdf32" d="M2508.0341,-197C2508.0341,-197 2526.8106,-197 2526.8106,-197"/>
<polygon fill="#ccdf32" stroke="#ccdf32" points="2534.8105,-187 2534.8107,-207 2530.8107,-207.0001 2530.8105,-187.0001 2534.8105,-187"/>
<polyline fill="none" stroke="#ccdf32" points="2536.8106,-197 2526.8106,-197.0001 "/>
</g>
<!-- union_10 -->
<g id="node39" class="node">
<title>union_10</title>
<ellipse fill="#629755" stroke="#ffffff" cx="2749.5" cy="-197" rx="3.5" ry="3.5"/>
</g>
<!-- Son7&#45;&gt;union_10 -->
<g id="edge38" class="edge">
<title>Son7&#45;&gt;union_10</title>
<path fill="none" stroke="#629755" d="M2717.3146,-197C2729.9376,-197 2740.4166,-197 2745.7333,-197"/>
</g>
<!-- siblings_10 -->
<g id="node40" class="node">
<title>siblings_10</title>
<polygon fill="#629755" stroke="#cccccc" stroke-width="0" points="2789,-197.5 2782,-197.5 2782,-196.5 2789,-196.5 2789,-197.5"/>
</g>
<!-- union_10&#45;&gt;siblings_10 -->
<g id="edge39" class="edge">
<title>union_10&#45;&gt;siblings_10</title>
<path fill="none" stroke="#629755" d="M2753.0834,-197C2759.9128,-197 2774.7324,-197 2781.7154,-197"/>
</g>
<!-- Son8 -->
<g id="node41" class="node">
<title>Son8</title>
<polygon fill="#36393f" stroke="#cccccc" points="2998,-215 2818,-215 2818,-179 2998,-179 2998,-215"/>
<text text-anchor="middle" x="2908" y="-192.8" font-family="Helvetica, Arial, sans-serif" font-size="14.00" fill="#ffffff">Son8</text>
</g>
<!-- siblings_10&#45;&gt;Son8 -->
<g id="edge40" class="edge">
<title>siblings_10&#45;&gt;Son8</title>
<path fill="none" stroke="#629755" d="M2789.0341,-197C2789.0341,-197 2807.8106,-197 2807.8106,-197"/>
<polygon fill="#629755" stroke="#629755" points="2815.8105,-187 2815.8107,-207 2811.8107,-207.0001 2811.8105,-187.0001 2815.8105,-187"/>
<polyline fill="none" stroke="#629755" points="2817.8106,-197 2807.8106,-197.0001 "/>
</g>
<!-- union_11 -->
<g id="node42" class="node">
<title>union_11</title>
<ellipse fill="#cc7832" stroke="#ffffff" cx="3030.5" cy="-197" rx="3.5" ry="3.5"/>
</g>
<!-- Son8&#45;&gt;union_11 -->
<g id="edge41" class="edge">
<title>Son8&#45;&gt;union_11</title>
<path fill="none" stroke="#cc7832" d="M2998.3146,-197C3010.9376,-197 3021.4166,-197 3026.7333,-197"/>
</g>
<!-- siblings_11 -->
<g id="node43" class="node">
<title>siblings_11</title>
<polygon fill="#cc7832" stroke="#cccccc" stroke-width="0" points="3070,-197.5 3063,-197.5 3063,-196.5 3070,-196.5 3070,-197.5"/>
</g>
<!-- union_11&#45;&gt;siblings_11 -->
<g id="edge42" class="edge">
<title>union_11&#45;&gt;siblings_11</title>
<path fill="none" stroke="#cc7832" d="M3034.0834,-197C3040.9128,-197 3055.7324,-197 3062.7154,-197"/>
</g>
<!-- Son9 -->
<g id="node44" class="node">
<title>Son9</title>
<polygon fill="#36393f" stroke="#cccccc" points="3279,-215 3099,-215 3099,-179 3279,-179 3279,-215"/>
<text text-anchor="middle" x="3189" y="-192.8" font-family="Helvetica, Arial, sans-serif" font-size="14.00" fill="#ffffff">Son9</text>
</g>
<!-- siblings_11&#45;&gt;Son9 -->
<g id="edge43" class="edge">
<title>siblings_11&#45;&gt;Son9</title>
<path fill="none" stroke="#cc7832" d="M3070.0341,-197C3070.0341,-197 3088.8106,-197 3088.8106,-197"/>
<polygon fill="#cc7832" stroke="#cc7832" points="3096.8105,-187 3096.8107,-207 3092.8107,-207.0001 3092.8105,-187.0001 3096.8105,-187"/>
<polyline fill="none" stroke="#cc7832" points="3098.8106,-197 3088.8106,-197.0001 "/>
</g>
<!-- union_12 -->
<g id="node45" class="node">
<title>union_12</title>
<ellipse fill="#6897bb" stroke="#ffffff" cx="3311.5" cy="-197" rx="3.5" ry="3.5"/>
</g>
<!-- Son9&#45;&gt;union_12 -->
<g id="edge44" class="edge">
<title>Son9&#45;&gt;union_12</title>
<path fill="none" stroke="#6897bb" d="M3279.3146,-197C3291.9376,-197 3302.4166,-197 3307.7333,-197"/>
</g>
<!-- siblings_12 -->
<g id="node46" class="node">
<title>siblings_12</title>
<polygon fill="#6897bb" stroke="#cccccc" stroke-width="0" points="3351,-197.5 3344,-197.5 3344,-196.5 3351,-196.5 3351,-197.5"/>
</g>
<!-- union_12&#45;&gt;siblings_12 -->
<g id="edge45" class="edge">
<title>union_12&#45;&gt;siblings_12</title>
<path fill="none" stroke="#6897bb" d="M3315.0834,-197C3321.9128,-197 3336.7324,-197 3343.7154,-197"/>
</g>
<!-- Son10 -->
<g id="node47" class="node">
<title>Son10</title>
<polygon fill="#36393f" stroke="#cccccc" points="3560,-215 3380,-215 3380,-179 3560,-179 3560,-215"/>
<text text-anchor="middle" x="3470" y="-192.8" font-family="Helvetica, Arial, sans-serif" font-size="14.00" fill="#ffffff">Son10</text>
</g>
<!-- siblings_12&#45;&gt;Son10 -->
<g id="edge46" class="edge">
<title>siblings_12&#45;&gt;Son10</title>
<path fill="none" stroke="#6897bb" d="M3351.0341,-197C3351.0341,-197 3369.8106,-197 3369.8106,-197"/>
<polygon fill="#6897bb" stroke="#6897bb" points="3377.8105,-187 3377.8107,-207 3373.8107,-207.0001 3373.8105,-187.0001 3377.8105,-187"/>
<polyline fill="none" stroke="#6897bb" points="3379.8106,-197 3369.8106,-197.0001 "/>
</g>
<!-- union_13 -->
<g id="node48" class="node">
<title>union_13</title>
<ellipse fill="#bbb529" stroke="#ffffff" cx="3592.5" cy="-197" rx="3.5" ry="3.5"/>
</g>
<!-- Son10&#45;&gt;union_13 -->
<g id="edge47" class="edge">
<title>Son10&#45;&gt;union_13</title>
<path fill="none" stroke="#bbb529" d="M3560.3146,-197C3572.9376,-197 3583.4166,-197 3588.7333,-197"/>
</g>
<!-- siblings_13 -->
<g id="node49" class="node">
<title>siblings_13</title>
<polygon fill="#bbb529" stroke="#cccccc" stroke-width="0" points="3632,-197.5 3625,-197.5 3625,-196.5 3632,-196.5 3632,-197.5"/>
</g>
<!-- union_13&#45;&gt;siblings_13 -->
<g id="edge48" class="edge">
<title>union_13&#45;&gt;siblings_13</title>
<path fill="none" stroke="#bbb529" d="M3596.0834,-197C3602.9128,-197 3617.7324,-197 3624.7154,-197"/>
</g>
<!-- Son11 -->
<g id="node50" class="node">
<title>Son11</title>
<polygon fill="#36393f" stroke="#cccccc" points="3841,-215 3661,-215 3661,-179 3841,-179 3841,-215"/>
<text text-anchor="middle" x="3751" y="-192.8" font-family="Helvetica, Arial, sans-serif" font-size="14.00" fill="#ffffff">Son11</text>
</g>
<!-- siblings_13&#45;&gt;Son11 -->
<g id="edge49" class="edge">
<title>siblings_13&#45;&gt;Son11</title>
<path fill="none" stroke="#bbb529" d="M3632.0341,-197C3632.0341,-197 3650.8106,-197 3650.8106,-197"/>
<polygon fill="#bbb529" stroke="#bbb529" points="3658.8105,-187 3658.8107,-207 3654.8107,-207.0001 3654.8105,-187.0001 3658.8105,-187"/>
<polyline fill="none" stroke="#bbb529" points="3660.8106,-197 3650.8106,-197.0001 "/>
</g>
<!-- union_14 -->
<g id="node51" class="node">
<title>union_14</title>
<ellipse fill="#9876aa" stroke="#ffffff" cx="3873.5" cy="-197" rx="3.5" ry="3.5"/>
</g>
<!-- Son11&#45;&gt;union_14 -->
<g id="edge50" class="edge">
<title>Son11&#45;&gt;union_14</title>
<path fill="none" stroke="#9876aa" d="M3841.3146,-197C3853.9376,-197 3864.4166,-197 3869.7333,-197"/>
</g>
<!-- siblings_14 -->
<g id="node52" class="node">
<title>siblings_14</title>
<polygon fill="#9876aa" stroke="#cccccc" stroke-width="0" points="3913,-197.5 3906,-197.5 3906,-196.5 3913,-196.5 3913,-197.5"/>
</g>
<!-- union_14&#45;&gt;siblings_14 -->
<g id="edge51" class="edge">
<title>union_14&#45;&gt;siblings_14</title>
<path fill="none" stroke="#9876aa" d="M3877.0834,-197C3883.9128,-197 3898.7324,-197 3905.7154,-197"/>
</g>
<!-- Son12 -->
<g id="node53" class="node">
<title>Son12</title>
<polygon fill="#36393f" stroke="#cccccc" points="4122,-215 3942,-215 3942,-179 4122,-179 4122,-215"/>
<text text-anchor="middle" x="4032" y="-192.8" font-family="Helvetica, Arial, sans-serif" font-size="14.00" fill="#ffffff">Son12</text>
</g>
<!-- siblings_14&#45;&gt;Son12 -->
<g id="edge52" class="edge">
<title>siblings_14&#45;&gt;Son12</title>
<path fill="none" stroke="#9876aa" d="M3913.0341,-197C3913.0341,-197 3931.8106,-197 3931.8106,-197"/>
<polygon fill="#9876aa" stroke="#9876aa" points="3939.8105,-187 3939.8107,-207 3935.8107,-207.0001 3935.8105,-187.0001 3939.8105,-187"/>
<polyline fill="none" stroke="#9876aa" points="3941.8106,-197 3931.8106,-197.0001 "/>
</g>
<!-- union_15 -->
<g id="node54" class="node">
<title>union_15</title>
<ellipse fill="#efc090" stroke="#ffffff" cx="4154.5" cy="-197" rx="3.5" ry="3.5"/>
</g>
<!-- Son12&#45;&gt;union_15 -->
<g id="edge53" class="edge">
<title>Son12&#45;&gt;union_15</title>
<path fill="none" stroke="#efc090" d="M4122.3146,-197C4134.9376,-197 4145.4166,-197 4150.7333,-197"/>
</g>
<!-- siblings_15 -->
<g id="node55" class="node">
<title>siblings_15</title>
<polygon fill="#efc090" stroke="#cccccc" stroke-width="0" points="4194,-197.5 4187,-197.5 4187,-196.5 4194,-196.5 4194,-197.5"/>
</g>
<!-- union_15&#45;&gt;siblings_15 -->
<g id="edge54" class="edge">
<title>union_15&#45;&gt;siblings_15</title>
<path fill="none" stroke="#efc090" d="M4158.0834,-197C4164.9128,-197 4179.7324,-197 4186.7154,-197"/>
</g>
<!-- Son13 -->
<g id="node56" class="node">
<title>Son13</title>
<polygon fill="#36393f" stroke="#cccccc" points="4403,-215 4223,-215 4223,-179 4403,-179 4403,-215"/>
<text text-anchor="middle" x="4313" y="-192.8" font-family="Helvetica, Arial, sans-serif" font-size="14.00" fill="#ffffff">Son13</text>
</g>
<!-- siblings_15&#45;&gt;Son13 -->
<g id="edge55" class="edge">
<title>siblings_15&#45;&gt;Son13</title>
<path fill="none" stroke="#efc090" d="M4194.0341,-197C4194.0341,-197 4212.8106,-197 4212.8106,-197"/>
<polygon fill="#efc090" stroke="#efc090" points="4220.8105,-187 4220.8107,-207 4216.8107,-207.0001 4216.8105,-187.0001 4220.8105,-187"/>
<polyline fill="none" stroke="#efc090" points="4222.8106,-197 4212.8106,-197.0001 "/>
</g>
<!-- union_16 -->
<g id="node57" class="node">
<title>union_16</title>
<ellipse fill="#d25252" stroke="#ffffff" cx="4435.5" cy="-197" rx="3.5" ry="3.5"/>
</g>
<!-- Son13&#45;&gt;union_16 -->
<g id="edge56" class="edge">
<title>Son13&#45;&gt;union_16</title>
<path fill="none" stroke="#d25252" d="M4403.3146,-197C4415.9376,-197 4426.4166,-197 4431.7333,-197"/>
</g>
<!-- siblings_16 -->
<g id="node58" class="node">
<title>siblings_16</title>
<polygon fill="#d25252" stroke="#cccccc" stroke-width="0" points="4475,-197.5 4468,-197.5 4468,-196.5 4475,-196.5 4475,-197.5"/>
</g>
<!-- union_16&#45;&gt;siblings_16 -->
<g id="edge57" class="edge">
<title>union_16&#45;&gt;siblings_16</title>
<path fill="none" stroke="#d25252" d="M4439.0834,-197C4445.9128,-197 4460.7324,-197 4467.7154,-197"/>
</g>
<!-- Son14 -->
<g id="node59" class="node">
<title>Son14</title>
<polygon fill="#36393f" stroke="#cccccc" points="4684,-215 4504,-215 4504,-179 4684,-179 4684,-215"/>
<text text-anchor="middle" x="4594" y="-192.8" font-family="Helvetica, Arial, sans-serif" font-size="14.00" fill="#ffffff">Son14</text>
</g>
<!-- siblings_16&#45;&gt;Son14 -->
<g id="edge58" class="edge">
<title>siblings_16&#45;&gt;Son14</title>
<path fill="none" stroke="#d25252" d="M4475.0341,-197C4475.0341,-197 4493.8106,-197 4493.8106,-197"/>
<polygon fill="#d25252" stroke="#d25252" points="4501.8105,-187 4501.8107,-207 4497.8107,-207.0001 4497.8105,-187.0001 4501.8105,-187"/>
<polyline fill="none" stroke="#d25252" points="4503.8106,-197 4493.8106,-197.0001 "/>
</g>
<!-- union_17 -->
<g id="node60" class="node">
<title>union_17</title>
<ellipse fill="#ccdf32" stroke="#ffffff" cx="4716.5" cy="-197" rx="3.5" ry="3.5"/>
</g>
<!-- Son14&#45;&gt;union_17 -->
<g id="edge59" class="edge">
<title>Son14&#45;&gt;union_17</title>
<path fill="none" stroke="#ccdf32" d="M4684.3146,-197C4696.9376,-197 4707.4166,-197 4712.7333,-197"/>
</g>
<!-- siblings_17 -->
<g id="node61" class="node">
<title>siblings_17</title>
<polygon fill="#ccdf32" stroke="#cccccc" stroke-width="0" points="4756,-197.5 4749,-197.5 4749,-196.5 4756,-196.5 4756,-197.5"/>
</g>
<!-- union_17&#45;&gt;siblings_17 -->
<g id="edge60" class="edge">
<title>union_17&#45;&gt;siblings_17</title>
<path fill="none" stroke="#ccdf32" d="M4720.0834,-197C4726.9128,-197 4741.7324,-197 4748.7154,-197"/>
</g>
<!-- Son15 -->
<g id="node62" class="node">
<title>Son15</title>
<polygon fill="#36393f" stroke="#cccccc" points="4965,-215 4785,-215 4785,-179 4965,-179 4965,-215"/>
<text text-anchor="middle" x="4875" y="-192.8" font-family="Helvetica, Arial, sans-serif" font-size="14.00" fill="#ffffff">Son15</text>
</g>
<!-- siblings_17&#45;&gt;Son15 -->
<g id="edge61" class="edge">
<title>siblings_17&#45;&gt;Son15</title>
<path fill="none" stroke="#ccdf32" d="M4756.0341,-197C4756.0341,-197 4774.8106,-197 4774.8106,-197"/>
<polygon fill="#ccdf32" stroke="#ccdf32" points="4782.8105,-187 4782.8107,-207 4778.8107,-207.0001 4778.8105,-187.0001 4782.8105,-187"/>
<polyline fill="none" stroke="#ccdf32" points="4784.8106,-197 4774.8106,-197.0001 "/>
</g>
<!-- union_18 -->
<g id="node63" class="node">
<title>union_18</title>
<ellipse fill="#629755" stroke="#ffffff" cx="4997.5" cy="-197" rx="3.5" ry="3.5"/>
</g>
<!-- Son15&#45;&gt;union_18 -->
<g id="edge62" class="edge">
<title>Son15&#45;&gt;union_18</title>
<path fill="none" stroke="#629755" d="M4965.3146,-197C4977.9376,-197 4988.4166,-197 4993.7333,-197"/>
</g>
<!-- siblings_18 -->
<g id="node64" class="node">
<title>siblings_18</title>
<polygon fill="#629755" stroke="#cccccc" stroke-width="0" points="5037,-197.5 5030,-197.5 5030,-196.5 5037,-196.5 5037,-197.5"/>
</g>
<!-- union_18&#45;&gt;siblings_18 -->
<g id="edge63" class="edge">
<title>union_18&#45;&gt;siblings_18</title>
<path fill="none" stroke="#629755" d="M5001.0834,-197C5007.9128,-197 5022.7324,-197 5029.7154,-197"/>
</g>
<!-- Son16 -->
<g id="node65" class="node">
<title>Son16</title>
<polygon fill="#36393f" stroke="#cccccc" points="5246,-215 5066,-215 5066,-179 5246,-179 5246,-215"/>
<text text-anchor="middle" x="5156" y="-192.8" font-family="Helvetica, Arial, sans-serif" font-size="14.00" fill="#ffffff">Son16</text>
</g>
<!-- siblings_18&#45;&gt;Son16 -->
<g id="edge64" class="edge">
<title>siblings_18&#45;&gt;Son16</title>
<path fill="none" stroke="#629755" d="M5037.0341,-197C5037.0341,-197 5055.8106,-197 5055.8106,-197"/>
<polygon fill="#629755" stroke="#629755" points="5063.8105,-187 5063.8107,-207 5059.8107,-207.0001 5059.8105,-187.0001 5063.8105,-187"/>
<polyline fill="none" stroke="#629755" points="5065.8106,-197 5055.8106,-197.0001 "/>
</g>
<!-- union_19 -->
<g id="node66" class="node">
<title>union_19</title>
<ellipse fill="#cc7832" stroke="#ffffff" cx="5278.5" cy="-197" rx="3.5" ry="3.5"/>
</g>
<!-- Son16&#45;&gt;union_19 -->
<g id="edge65" class="edge">
<title>Son16&#45;&gt;union_19</title>
<path fill="none" stroke="#cc7832" d="M5246.3146,-197C5258.9376,-197 5269.4166,-197 5274.7333,-197"/>
</g>
<!-- siblings_19 -->
<g id="node67" class="node">
<title>siblings_19</title>
<polygon fill="#cc7832" stroke="#cccccc" stroke-width="0" points="5318,-197.5 5311,-197.5 5311,-196.5 5318,-196.5 5318,-197.5"/>
</g>
<!-- union_19&#45;&gt;siblings_19 -->
<g id="edge66" class="edge">
<title>union_19&#45;&gt;siblings_19</title>
<path fill="none" stroke="#cc7832" d="M5282.0834,-197C5288.9128,-197 5303.7324,-197 5310.7154,-197"/>
</g>
<!-- Son17 -->
<g id="node68" class="node">
<title>Son17</title>
<polygon fill="#36393f" stroke="#cccccc" points="5527,-215 5347,-215 5347,-179 5527,-179 5527,-215"/>
<text text-anchor="middle" x="5437" y="-192.8" font-family="Helvetica, Arial, sans-serif" font-size="14.00" fill="#ffffff">Son17</text>
</g>
<!-- siblings_19&#45;&gt;Son17 -->
<g id="edge67" class="edge">
<title>siblings_19&#45;&gt;Son17</title>
<path fill="none" stroke="#cc7832" d="M5318.0341,-197C5318.0341,-197 5336.8106,-197 5336.8106,-197"/>
<polygon fill="#cc7832" stroke="#cc7832" points="5344.8105,-187 5344.8107,-207 5340.8107,-207.0001 5340.8105,-187.0001 5344.8105,-187"/>
<polyline fill="none" stroke="#cc7832" points="5346.8106,-197 5336.8106,-197.0001 "/>
</g>
<!-- union_20 -->
<g id="node69" class="node">
<title>union_20</title>
<ellipse fill="#6897bb" stroke="#ffffff" cx="5559.5" cy="-197" rx="3.5" ry="3.5"/>
</g>
<!-- Son17&#45;&gt;union_20 -->
<g id="edge68" class="edge">
<title>Son17&#45;&gt;union_20</title>
<path fill="none" stroke="#6897bb" d="M5527.3146,-197C5539.9376,-197 5550.4166,-197 5555.7333,-197"/>
</g>
<!-- siblings_20 -->
<g id="node70" class="node">
<title>siblings_20</title>
<polygon fill="#6897bb" stroke="#cccccc" stroke-width="0" points="5599,-197.5 5592,-197.5 5592,-196.5 5599,-196.5 5599,-197.5"/>
</g>
<!-- union_20&#45;&gt;siblings_20 -->
<g id="edge69" class="edge">
<title>union_20&#45;&gt;siblings_20</title>
<path fill="none" stroke="#6897bb" d="M5563.0834,-197C5569.9128,-197 5584.7324,-197 5591.7154,-197"/>
</g>
<!-- Son18 -->
<g id="node71" class="node">
<title>Son18</title>
<polygon fill="#36393f" stroke="#cccccc" points="5808,-215 5628,-215 5628,-179 5808,-179 5808,-215"/>
<text text-anchor="middle" x="5718" y="-192.8" font-family="Helvetica, Arial, sans-serif" font-size="14.00" fill="#ffffff">Son18</text>
</g>
<!-- siblings_20&#45;&gt;Son18 -->
<g id="edge70" class="edge">
<title>siblings_20&#45;&gt;Son18</title>
<path fill="none" stroke="#6897bb" d="M5599.0341,-197C5599.0341,-197 5617.8106,-197 5617.8106,-197"/>
<polygon fill="#6897bb" stroke="#6897bb" points="5625.8105,-187 5625.8107,-207 5621.8107,-207.0001 5621.8105,-187.0001 5625.8105,-187"/>
<polyline fill="none" stroke="#6897bb" points="5627.8106,-197 5617.8106,-197.0001 "/>
</g>
<!-- union_21 -->
<g id="node72" class="node">
<title>union_21</title>
<ellipse fill="#bbb529" stroke="#ffffff" cx="5840.5" cy="-197" rx="3.5" ry="3.5"/>
</g>
<!-- Son18&#45;&gt;union_21 -->
<g id="edge71" class="edge">
<title>Son18&#45;&gt;union_21</title>
<path fill="none" stroke="#bbb529" d="M5808.3146,-197C5820.9376,-197 5831.4166,-197 5836.7333,-197"/>
</g>
<!-- siblings_21 -->
<g id="node73" class="node">
<title>siblings_21</title>
<polygon fill="#bbb529" stroke="#cccccc" stroke-width="0" points="5880,-197.5 5873,-197.5 5873,-196.5 5880,-196.5 5880,-197.5"/>
</g>
<!-- union_21&#45;&gt;siblings_21 -->
<g id="edge72" class="edge">
<title>union_21&#45;&gt;siblings_21</title>
<path fill="none" stroke="#bbb529" d="M5844.0834,-197C5850.9128,-197 5865.7324,-197 5872.7154,-197"/>
</g>
<!-- Son19 -->
<g id="node74" class="node">
<title>Son19</title>
<polygon fill="#36393f" stroke="#cccccc" points="6089,-215 5909,-215 5909,-179 6089,-179 6089,-215"/>
<text text-anchor="middle" x="5999" y="-192.8" font-family="Helvetica, Arial, sans-serif" font-size="14.00" fill="#ffffff">Son19</text>
</g>
<!-- siblings_21&#45;&gt;Son19 -->
<g id="edge73" class="edge">
<title>siblings_21&#45;&gt;Son19</title>
<path fill="none" stroke="#bbb529" d="M5880.0341,-197C5880.0341,-197 5898.8106,-197 5898.8106,-197"/>
<polygon fill="#bbb529" stroke="#bbb529" points="5906.8105,-187 5906.8107,-207 5902.8107,-207.0001 5902.8105,-187.0001 5906.8105,-187"/>
<polyline fill="none" stroke="#bbb529" points="5908.8106,-197 5898.8106,-197.0001 "/>
</g>
<!-- union_22 -->
<g id="node75" class="node">
<title>union_22</title>
<ellipse fill="#9876aa" stroke="#ffffff" cx="6121.5" cy="-197" rx="3.5" ry="3.5"/>
</g>
<!-- Son19&#45;&gt;union_22 -->
<g id="edge74" class="edge">
<title>Son19&#45;&gt;union_22</title>
<path fill="none" stroke="#9876aa" d="M6089.3146,-197C6101.9376,-197 6112.4166,-197 6117.7333,-197"/>
</g>
<!-- siblings_22 -->
<g id="node76" class="node">
<title>siblings_22</title>
<polygon fill="#9876aa" stroke="#cccccc" stroke-width="0" points="6161,-197.5 6154,-197.5 6154,-196.5 6161,-196.5 6161,-197.5"/>
</g>
<!-- union_22&#45;&gt;siblings_22 -->
<g id="edge75" class="edge">
<title>union_22&#45;&gt;siblings_22</title>
<path fill="none" stroke="#9876aa" d="M6125.0834,-197C6131.9128,-197 6146.7324,-197 6153.7154,-197"/>
</g>
<!-- Son20 -->
<g id="node77" class="node">
<title>Son20</title>
<polygon fill="#36393f" stroke="#cccccc" points="6370,-215 6190,-215 6190,-179 6370,-179 6370,-215"/>
<text text-anchor="middle" x="6280" y="-192.8" font-family="Helvetica, Arial, sans-serif" font-size="14.00" fill="#ffffff">Son20</text>
</g>
<!-- siblings_22&#45;&gt;Son20 -->
<g id="edge76" class="edge">
<title>siblings_22&#45;&gt;Son20</title>
<path fill="none" stroke="#9876aa" d="M6161.0341,-197C6161.0341,-197 6179.8106,-197 6179.8106,-197"/>
<polygon fill="#9876aa" stroke="#9876aa" points="6187.8105,-187 6187.8107,-207 6183.8107,-207.0001 6183.8105,-187.0001 6187.8105,-187"/>
<polyline fill="none" stroke="#9876aa" points="6189.8106,-197 6179.8106,-197.0001 "/>
</g>
<!-- union_23 -->
<g id="node78" class="node">
<title>union_23</title>
<ellipse fill="#efc090" stroke="#ffffff" cx="6402.5" cy="-197" rx="3.5" ry="3.5"/>
</g>
<!-- Son20&#45;&gt;union_23 -->
<g id="edge77" class="edge">
<title>Son20&#45;&gt;union_23</title>
<path fill="none" stroke="#efc090" d="M6370.3146,-197C6382.9376,-197 6393.4166,-197 6398.7333,-197"/>
</g>
<!-- siblings_23 -->
<g id="node79" class="node">
<title>siblings_23</title>
<polygon fill="#efc090" stroke="#cccccc" stroke-width="0" points="6442,-197.5 6435,-197.5 6435,-196.5 6442,-196.5 6442,-197.5"/>
</g>
<!-- union_23&#45;&gt;siblings_23 -->
<g id="edge78" class="edge">
<title>union_23&#45;&gt;siblings_23</title>
<path fill="none" stroke="#efc090" d="M6406.0834,-197C6412.9128,-197 6427.7324,-197 6434.7154,-197"/>
</g>
<!-- Son21 -->
<g id="node80" class="node">
<title>Son21</title>
<polygon fill="#36393f" stroke="#cccccc" points="6651,-215 6471,-215 6471,-179 6651,-179 6651,-215"/>
<text text-anchor="middle" x="6561" y="-192.8" font-family="Helvetica, Arial, sans-serif" font-size="14.00" fill="#ffffff">Son21</text>
</g>
<!-- siblings_23&#45;&gt;Son21 -->
<g id="edge79" class="edge">
<title>siblings_23&#45;&gt;Son21</title>
<path fill="none" stroke="#efc090" d="M6442.0341,-197C6442.0341,-197 6460.8106,-197 6460.8106,-197"/>
<polygon fill="#efc090" stroke="#efc090" points="6468.8105,-187 6468.8107,-207 6464.8107,-207.0001 6464.8105,-187.0001 6468.8105,-187"/>
<polyline fill="none" stroke="#efc090" points="6470.8106,-197 6460.8106,-197.0001 "/>
</g>
<!-- union_24 -->
<g id="node81" class="node">
<title>union_24</title>
<ellipse fill="#d25252" stroke="#ffffff" cx="6683.5" cy="-197" rx="3.5" ry="3.5"/>
</g>
<!-- Son21&#45;&gt;union_24 -->
<g id="edge80" class="edge">
<title>Son21&#45;&gt;union_24</title>
<path fill="none" stroke="#d25252" d="M6651.3146,-197C6663.9376,-197 6674.4166,-197 6679.7333,-197"/>
</g>
<!-- siblings_24 -->
<g id="node82" class="node">
<title>siblings_24</title>
<polygon fill="#d25252" stroke="#cccccc" stroke-width="0" points="6723,-197.5 6716,-197.5 6716,-196.5 6723,-196.5 6723,-197.5"/>
</g>
<!-- union_24&#45;&gt;siblings_24 -->
<g id="edge81" class="edge">
<title>union_24&#45;&gt;siblings_24</title>
<path fill="none" stroke="#d25252" d="M6687.0834,-197C6693.9128,-197 6708.7324,-197 6715.7154,-197"/>
</g>
<!-- Son22 -->
<g id="node83" class="node">
<title>Son22</title>
<polygon fill="#36393f" stroke="#cccccc" points="6932,-215 6752,-215 6752,-179 6932,-179 6932,-215"/>
<text text-anchor="middle" x="6842" y="-192.8" font-family="Helvetica, Arial, sans-serif" font-size="14.00" fill="#ffffff">Son22</text>
</g>
<!-- siblings_24&#45;&gt;Son22 -->
<g id="edge82" class="edge">
<title>siblings_24&#45;&gt;Son22</title>
<path fill="none" stroke="#d25252" d="M6723.0341,-197C6723.0341,-197 6741.8106,-197 6741.8106,-197"/>
<polygon fill="#d25252" stroke="#d25252" points="6749.8105,-187 6749.8107,-207 6745.8107,-207.0001 6745.8105,-187.0001 6749.8105,-187"/>
<polyline fill="none" stroke="#d25252" points="6751.8106,-197 6741.8106,-197.0001 "/>
</g>
<!-- union_25 -->
<g id="node84" class="node">
<title>union_25</title>
<ellipse fill="#ccdf32" stroke="#ffffff" cx="6964.5" cy="-197" rx="3.5" ry="3.5"/>
</g>
<!-- Son22&#45;&gt;union_25 -->
<g id="edge83" class="edge">
<title>Son22&#45;&gt;union_25</title>
<path fill="none" stroke="#ccdf32" d="M6932.3146,-197C6944.9376,-197 6955.4166,-197 6960.7333,-197"/>
</g>
<!-- siblings_25 -->
<g id="node85" class="node">
<title>siblings_25</title>
<polygon fill="#ccdf32" stroke="#cccccc" stroke-width="0" points="7004,-197.5 6997,-197.5 6997,-196.5 7004,-196.5 7004,-197.5"/>
</g>
<!-- union_25&#45;&gt;siblings_25 -->
<g id="edge84" class="edge">
<title>union_25&#45;&gt;siblings_25</title>
<path fill="none" stroke="#ccdf32" d="M6968.0834,-197C6974.9128,-197 6989.7324,-197 6996.7154,-197"/>
</g>
<!-- Son23 -->
<g id="node86" class="node">
<title>Son23</title>
<polygon fill="#36393f" stroke="#cccccc" points="7213,-215 7033,-215 7033,-179 7213,-179 7213,-215"/>
<text text-anchor="middle" x="7123" y="-192.8" font-family="Helvetica, Arial, sans-serif" font-size="14.00" fill="#ffffff">Son23</text>
</g>
<!-- siblings_25&#45;&gt;Son23 -->
<g id="edge85" class="edge">
<title>siblings_25&#45;&gt;Son23</title>
<path fill="none" stroke="#ccdf32" d="M7004.0341,-197C7004.0341,-197 7022.8106,-197 7022.8106,-197"/>
<polygon fill="#ccdf32" stroke="#ccdf32" points="7030.8105,-187 7030.8107,-207 7026.8107,-207.0001 7026.8105,-187.0001 7030.8105,-187"/>
<polyline fill="none" stroke="#ccdf32" points="7032.8106,-197 7022.8106,-197.0001 "/>
</g>
<!-- union_26 -->
<g id="node87" class="node">
<title>union_26</title>
<ellipse fill="#629755" stroke="#ffffff" cx="7245.5" cy="-197" rx="3.5" ry="3.5"/>
</g>
<!-- Son23&#45;&gt;union_26 -->
<g id="edge86" class="edge">
<title>Son23&#45;&gt;union_26</title>
<path fill="none" stroke="#629755" d="M7213.3146,-197C7225.9376,-197 7236.4166,-197 7241.7333,-197"/>
</g>
<!-- siblings_26 -->
<g id="node88" class="node">
<title>siblings_26</title>
<polygon fill="#629755" stroke="#cccccc" stroke-width="0" points="7285,-197.5 7278,-197.5 7278,-196.5 7285,-196.5 7285,-197.5"/>
</g>
<!-- union_26&#45;&gt;siblings_26 -->
<g id="edge87" class="edge">
<title>union_26&#45;&gt;siblings_26</title>
<path fill="none" stroke="#629755" d="M7249.0834,-197C7255.9128,-197 7270.7324,-197 7277.7154,-197"/>
</g>
<!-- Son24 -->
<g id="node89" class="node">
<title>Son24</title>
<polygon fill="#36393f" stroke="#cccccc" points="7494,-215 7314,-215 7314,-179 7494,-179 7494,-215"/>
<text text-anchor="middle" x="7404" y="-192.8" font-family="Helvetica, Arial, sans-serif" font-size="14.00" fill="#ffffff">Son24</text>
</g>
<!-- siblings_26&#45;&gt;Son24 -->
<g id="edge88" class="edge">
<title>siblings_26&#45;&gt;Son24</title>
<path fill="none" stroke="#629755" d="M7285.0341,-197C7285.0341,-197 7303.8106,-197 7303.8106,-197"/>
<polygon fill="#629755" stroke="#629755" points="7311.8105,-187 7311.8107,-207 7307.8107,-207.0001 7307.8105,-187.0001 7311.8105,-187"/>
<polyline fill="none" stroke="#629755" points="7313.8106,-197 7303.8106,-197.0001 "/>
</g>
<!-- union_27 -->
<g id="node90" class="node">
<title>union_27</title>
<ellipse fill="#cc7832" stroke="#ffffff" cx="7526.5" cy="-197" rx="3.5" ry="3.5"/>
</g>
<!-- Son24&#45;&gt;union_27 -->
<g id="edge89" class="edge">
<title>Son24&#45;&gt;union_27</title>
<path fill="none" stroke="#cc7832" d="M7494.3146,-197C7506.9376,-197 7517.4166,-197 7522.7333,-197"/>
</g>
<!-- siblings_27 -->
<g id="node91" class="node">
<title>siblings_27</title>
<polygon fill="#cc7832" stroke="#cccccc" stroke-width="0" points="7566,-197.5 7559,-197.5 7559,-196.5 7566,-196.5 7566,-197.5"/>
</g>
<!-- union_27&#45;&gt;siblings_27 -->
<g id="edge90" class="edge">
<title>union_27&#45;&gt;siblings_27</title>
<path fill="none" stroke="#cc7832" d="M7530.0834,-197C7536.9128,-197 7551.7324,-197 7558.7154,-197"/>
</g>
<!-- Son25 -->
<g id="node92" class="node">
<title>Son25</title>
<polygon fill="#36393f" stroke="#cccccc" points="7775,-215 7595,-215 7595,-179 7775,-179 7775,-215"/>
<text text-anchor="middle" x="7685" y="-192.8" font-family="Helvetica, Arial, sans-serif" font-size="14.00" fill="#ffffff">Son25</text>
</g>
<!-- siblings_27&#45;&gt;Son25 -->
<g id="edge91" class="edge">
<title>siblings_27&#45;&gt;Son25</title>
<path fill="none" stroke="#cc7832" d="M7566.0341,-197C7566.0341,-197 7584.8106,-197 7584.8106,-197"/>
<polygon fill="#cc7832" stroke="#cc7832" points="7592.8105,-187 7592.8107,-207 7588.8107,-207.0001 7588.8105,-187.0001 7592.8105,-187"/>
<polyline fill="none" stroke="#cc7832" points="7594.8106,-197 7584.8106,-197.0001 "/>
</g>
</g>
</svg>
